<svg width="24" height="25" viewBox="0 0 24 25" fill="none" xmlns="http://www.w3.org/2000/svg">
<path d="M13 8.14343V16.1434C13 16.9391 12.6839 17.7021 12.1213 18.2648C11.5587 18.8274 10.7956 19.1434 10 19.1434H7.83C7.59409 19.8109 7.1298 20.3735 6.51919 20.7318C5.90858 21.0901 5.19098 21.2209 4.49321 21.1012C3.79545 20.9816 3.16246 20.6191 2.70613 20.0778C2.2498 19.5365 1.99951 18.8514 1.99951 18.1434C1.99951 17.4355 2.2498 16.7503 2.70613 16.2091C3.16246 15.6678 3.79545 15.3053 4.49321 15.1856C5.19098 15.0659 5.90858 15.1968 6.51919 15.5551C7.1298 15.9133 7.59409 16.4759 7.83 17.1434H10C10.2652 17.1434 10.5196 17.0381 10.7071 16.8505C10.8946 16.663 11 16.4086 11 16.1434V8.14343C11 7.34778 11.3161 6.58472 11.8787 6.02211C12.4413 5.4595 13.2044 5.14343 14 5.14343H17V2.14343L22 6.14343L17 10.1434V7.14343H14C13.7348 7.14343 13.4804 7.24879 13.2929 7.43633C13.1054 7.62386 13 7.87822 13 8.14343ZM5 19.1434C5.26522 19.1434 5.51957 19.0381 5.70711 18.8505C5.89464 18.663 6 18.4086 6 18.1434C6 17.8782 5.89464 17.6239 5.70711 17.4363C5.51957 17.2488 5.26522 17.1434 5 17.1434C4.73478 17.1434 4.48043 17.2488 4.29289 17.4363C4.10536 17.6239 4 17.8782 4 18.1434C4 18.4086 4.10536 18.663 4.29289 18.8505C4.48043 19.0381 4.73478 19.1434 5 19.1434Z" fill="white"/>
</svg>
